<svg xmlns="http://www.w3.org/2000/svg" xmlns:xlink="http://www.w3.org/1999/xlink" id="Layer_1" width="1036" height="1612" x="0" y="0" enable-background="new 538 154 1036 1612" version="1.1" viewBox="538 154 1036 1612" xml:space="preserve"><path fill="#FFF" d="M1555,429l-531,531l531,531c12.667,12.667,19,27.667,19,45s-6.333,32.333-19,45l-166,166	c-12.667,12.667-27.667,19-45,19s-32.333-6.333-45-19l-742-742c-12.667-12.667-19-27.667-19-45s6.333-32.333,19-45l742-742	c12.667-12.667,27.667-19,45-19s32.333,6.333,45,19l166,166c12.667,12.667,19,27.667,19,45S1567.667,416.333,1555,429z"/></svg>