<svg xmlns="http://www.w3.org/2000/svg" xmlns:xlink="http://www.w3.org/1999/xlink" id="Layer_1" width="1188" height="1188" x="0" y="0" enable-background="new 430 494 1188 1188" version="1.1" viewBox="430 494 1188 1188" xml:space="preserve"><path fill="#555" d="M1618,1450c0,26.667-9.333,49.333-28,68l-136,136c-18.667,18.667-41.333,28-68,28s-49.333-9.333-68-28	l-294-294l-294,294c-18.667,18.667-41.333,28-68,28s-49.333-9.333-68-28l-136-136c-18.667-18.667-28-41.333-28-68	s9.333-49.333,28-68l294-294L458,794c-18.667-18.667-28-41.333-28-68s9.333-49.333,28-68l136-136c18.667-18.667,41.333-28,68-28	s49.333,9.333,68,28l294,294l294-294c18.667-18.667,41.333-28,68-28s49.333,9.333,68,28l136,136c18.667,18.667,28,41.333,28,68	s-9.333,49.333-28,68l-294,294l294,294C1608.667,1400.667,1618,1423.333,1618,1450z"/></svg>