<svg xmlns="http://www.w3.org/2000/svg" xmlns:xlink="http://www.w3.org/1999/xlink" id="Layer_1" width="1150.202" height="1408" x="0" y="0" enable-background="new 449.798 256 1150.202 1408" version="1.1" viewBox="449.798 256 1150.202 1408" xml:space="preserve"><path fill="#555" d="M768,896h512V704c0-70.667-25-131-75-181s-110.333-75-181-75s-131,25-181,75s-75,110.333-75,181V896z M1600,992v576c0,26.667-9.333,49.333-28,68s-41.333,28-68,28H544c-26.667,0-49.333-9.333-68-28s-28-41.333-28-68V992	c0-26.667,9.333-49.333,28-68s41.333-28,68-28h32V704c0-122.667,44-228,132-316s193.333-132,316-132s228,44,316,132	s132,193.333,132,316v192h32c26.667,0,49.333,9.333,68,28S1600,965.333,1600,992z"/></svg>