<svg xmlns="http://www.w3.org/2000/svg" xmlns:xlink="http://www.w3.org/1999/xlink" id="Layer_1" width="1792" height="1536" x="0" y="0" enable-background="new 128 256 1792 1536" version="1.1" viewBox="128 256 1792 1536" xml:space="preserve"><path fill="#555" d="M1024,1792c-17.333,0-32-6-44-18l-624-602c-6.667-5.333-15.833-14-27.5-26s-30.167-33.833-55.5-65.5	s-48-64.167-68-97.5s-37.833-73.667-53.5-121S128,768.667,128,724c0-146.667,42.333-261.333,127-344s201.667-124,351-124	c41.333,0,83.5,7.167,126.5,21.5s83,33.667,120,58s68.833,47.167,95.5,68.5s52,44,76,68c24-24,49.333-46.667,76-68	s58.5-44.167,95.5-68.5s77-43.667,120-58S1400.667,256,1442,256c149.333,0,266.333,41.333,351,124s127,197.333,127,344	c0,147.333-76.333,297.333-229,450l-623,600C1056,1786,1041.333,1792,1024,1792z"/></svg>