<svg xmlns="http://www.w3.org/2000/svg" xmlns:xlink="http://www.w3.org/1999/xlink" id="Layer_1" width="1664" height="1664" x="0" y="0" enable-background="new 192 256 1664 1664" version="1.1" viewBox="192 256 1664 1664" xml:space="preserve"><path fill="#AAA" d="M1344,960c0-123.333-43.833-228.833-131.5-316.5S1019.333,512,896,512s-228.833,43.833-316.5,131.5	S448,836.667,448,960s43.833,228.833,131.5,316.5S772.667,1408,896,1408s228.833-43.833,316.5-131.5S1344,1083.333,1344,960z M1856,1792c0,34.667-12.667,64.667-38,90s-55.333,38-90,38c-36,0-66-12.667-90-38l-343-342c-119.333,82.667-252.333,124-399,124	c-95.333,0-186.5-18.5-273.5-55.5s-162-87-225-150s-113-138-150-225S192,1055.333,192,960s18.5-186.5,55.5-273.5s87-162,150-225	s138-113,225-150S800.667,256,896,256s186.5,18.5,273.5,55.5s162,87,225,150s113,138,150,225S1600,864.667,1600,960	c0,146.667-41.333,279.667-124,399l343,343C1843.667,1726.667,1856,1756.667,1856,1792z"/></svg>