<svg xmlns="http://www.w3.org/2000/svg" xmlns:xlink="http://www.w3.org/1999/xlink" id="Layer_1" width="1536" height="1280" x="0" y="0" enable-background="new 256 384 1536 1280" version="1.1" viewBox="256 384 1536 1280" xml:space="preserve"><path fill="#FFF" d="M1792,1472v128c0,17.333-6.333,32.333-19,45s-27.667,19-45,19H320c-17.333,0-32.333-6.333-45-19	s-19-27.667-19-45v-128c0-17.333,6.333-32.333,19-45s27.667-19,45-19h1408c17.333,0,32.333,6.333,45,19S1792,1454.667,1792,1472z M1792,960v128c0,17.333-6.333,32.333-19,45s-27.667,19-45,19H320c-17.333,0-32.333-6.333-45-19s-19-27.667-19-45V960	c0-17.333,6.333-32.333,19-45s27.667-19,45-19h1408c17.333,0,32.333,6.333,45,19S1792,942.667,1792,960z M1792,448v128	c0,17.333-6.333,32.333-19,45s-27.667,19-45,19H320c-17.333,0-32.333-6.333-45-19s-19-27.667-19-45V448c0-17.333,6.333-32.333,19-45	s27.667-19,45-19h1408c17.333,0,32.333,6.333,45,19S1792,430.667,1792,448z"/></svg>